# xmcd
#
# Track frame offsets:
#	150
#	12824
#	26563
#	51705
#	64147
#	75921
#	89312
#	101956
#	111953
#	124529
#	136679
#	147785
#	160486
#	171320
#	184787
#	191908
#	200199
#	209936
#	218873
#	230669
#	243360
#	256502
#	267064
#	278911
#	288989
#	302811
#
# Disc length: 4154 seconds
#
# Revision: 0
# Processed by: cddbd v1.5.2PL0 Copyright (c) Steve Scherf et al.
# Submitted via: audiograbber 1.83.01
#
DISCID=8b10381a
DTITLE=Various Artist - Dave's 78s Volume 3
DYEAR=1900
DGENRE=
TTITLE0=Goodbye Now
TTITLE1=Elmers Tune
TTITLE2=Medley
TTITLE3=Its Make Believe Ballroom Time
TTITLE4=I Dont Know What This Is
TTITLE5=I Wonder
TTITLE6=Whiskey Do Your Stuff
TTITLE7=Choo Choo Ch Boogie
TTITLE8=A Dollar Down
TTITLE9=Messy Bessie
TTITLE10=Aint Nobody Here But Us Chickens
TTITLE11=Who Stuck The Wine In The Gravy
TTITLE12=Hey Now Lets live
TTITLE13=You Cant Get That No More
TTITLE14=The End Of My Worry
TTITLE15=Ive Found A New Baby
TTITLE16=Deacon Jones
TTITLE17=I Like Em Fat Like That
TTITLE18=Bahama Joe
TTITLE19=Nobody But Me
TTITLE20=Outskirts Of Town
TTITLE21=How High Am I
TTITLE22=Is You Is Or Is You Aint My Baby
TTITLE23=Knock Me A Kiss
TTITLE24=Five Guys Named Moe
TTITLE25=Jumpin At The Jubilee
EXTD=
EXTT0=
EXTT1=
EXTT2=
EXTT3=
EXTT4=
EXTT5=
EXTT6=
EXTT7=
EXTT8=
EXTT9=
EXTT10=
EXTT11=
EXTT12=
EXTT13=
EXTT14=
EXTT15=
EXTT16=
EXTT17=
EXTT18=
EXTT19=
EXTT20=
EXTT21=
EXTT22=
EXTT23=
EXTT24=
EXTT25=
PLAYORDER=
